<?xml version="1.0" encoding="utf-8"?>
<!-- Generator: Adobe Illustrator 22.1.0, SVG Export Plug-In . SVG Version: 6.00 Build 0)  -->
<svg version="1.1" id="Calque_1" xmlns="http://www.w3.org/2000/svg" xmlns:xlink="http://www.w3.org/1999/xlink" x="0px" y="0px"
	 viewBox="0 0 134.6 122.9" style="enable-background:new 0 0 134.6 122.9;" xml:space="preserve">
<style type="text/css">
	.st0{fill:#78AA21;}
	.st1{fill:#1FCECB;}
	.st2{fill:#B4BF35;}
	.st3{fill:#FFFFFF;}
	.st4{fill:none;stroke:#000000;stroke-miterlimit:10;}
	.st5{fill:none;stroke:#000000;stroke-width:4.7972;stroke-miterlimit:10;}
	.st6{fill:none;stroke:#000000;stroke-width:8;stroke-miterlimit:10;}
	.st7{fill:none;stroke:#000000;stroke-width:2;stroke-miterlimit:10;}
	.st8{fill:none;stroke:#000000;stroke-width:2.3521;stroke-miterlimit:10;}
	.st9{fill:none;stroke:#000000;stroke-width:3;stroke-miterlimit:10;}
	.st10{fill:none;}
	.st11{fill:none;stroke:#000000;stroke-width:2.2884;stroke-miterlimit:10;}
	.st12{fill:none;stroke:#000000;stroke-width:0.5721;stroke-miterlimit:10;}
	.st13{fill:none;stroke:#000000;stroke-width:0.6728;stroke-miterlimit:10;}
	.st14{fill:none;stroke:#000000;stroke-width:0.8581;stroke-miterlimit:10;}
	.st15{fill:none;stroke:#000000;stroke-width:2.1926;stroke-miterlimit:10;}
	.st16{fill:#FFFFFF;stroke:#000000;stroke-width:1.5121;stroke-miterlimit:10;}
	.st17{fill:#FFFFFF;stroke:#000000;stroke-width:2.069;stroke-miterlimit:10;}
	.st18{fill:none;stroke:#000000;stroke-width:2.8887;stroke-miterlimit:10;}
	.st19{fill:#F7931E;}
	.st20{fill:none;stroke:#000000;stroke-width:3.2216;stroke-miterlimit:10;}
	.st21{fill:none;stroke:#000000;stroke-width:0.8054;stroke-miterlimit:10;}
	.st22{fill:none;stroke:#000000;stroke-width:0.9472;stroke-miterlimit:10;}
	.st23{fill:none;stroke:#000000;stroke-width:1.2081;stroke-miterlimit:10;}
	.st24{fill:#EC4863;}
	.st25{fill:none;stroke:#78AA21;stroke-width:14;stroke-miterlimit:10;}
	.st26{fill:#E88E34;stroke:#603813;stroke-width:3;stroke-miterlimit:10;}
	.st27{fill:#F8F8F8;stroke:#E88E34;stroke-width:5;stroke-miterlimit:10;}
	.st28{fill:#E88E34;}
	.st29{fill:#99573E;}
	.st30{fill:#363942;}
	.st31{fill:none;stroke:#363942;stroke-linecap:round;stroke-miterlimit:10;}
	.st32{fill:none;stroke:#FFFFFF;stroke-miterlimit:10;}
	.st33{fill:none;stroke:#363942;stroke-miterlimit:10;}
	.st34{fill:none;stroke:#FFFFFF;stroke-linecap:round;stroke-miterlimit:10;}
	.st35{fill:none;stroke:#000000;stroke-width:3.2649;stroke-miterlimit:10;}
	.st36{fill:none;stroke:#000000;stroke-width:0.6104;stroke-miterlimit:10;}
	.st37{fill:none;stroke:#000000;stroke-width:5.2238;stroke-linecap:round;stroke-miterlimit:10;}
	.st38{fill:none;stroke:#000000;stroke-width:1.4227;stroke-miterlimit:10;}
	.st39{fill:none;stroke:#000000;stroke-width:0.3557;stroke-miterlimit:10;}
	.st40{fill:none;stroke:#000000;stroke-width:0.4183;stroke-miterlimit:10;}
	.st41{fill:none;stroke:#000000;stroke-width:0.5335;stroke-miterlimit:10;}
</style>
<g id="XMLID_2_">
	<g>
		<path d="M134.5,59.1c-0.3,1-1.5,1.6-2.5,1.3c-0.8-0.3-1.4-1-1.4-1.9c0-0.2,0-0.5,0.1-0.7c0.4-1.1,1.5-1.6,2.5-1.3
			C134.3,56.9,134.9,58,134.5,59.1z"/>
		<path class="st3" d="M101.9,46.2c0.2,0.3,0.5,0.5,0.9,0.6c1.1,0.3,2.2-0.2,2.5-1.3c0.3-1.1-0.2-2.2-1.3-2.5
			c-1.1-0.3-2.2,0.2-2.5,1.3C101.2,45,101.4,45.7,101.9,46.2z M96.1,64.3c-4.6,3.4-9.9,5.6-15.3,6.5c-1-0.5-2.1-1-3.2-1.3
			c-1-0.3-1.9-0.6-2.9-0.8c9.8-7.9,16.1-20.1,16-33.7c0-2.1-0.2-4.1-0.4-6.1c6.3-2.8,13.2-3.8,20-2.9c2.6,10.8,0.3,22.7-7.4,32
			C100.8,60.4,98.6,62.5,96.1,64.3z"/>
		<path d="M104,43c1.1,0.4,1.6,1.5,1.3,2.5c-0.3,1.1-1.5,1.6-2.5,1.3c-0.3-0.1-0.7-0.3-0.9-0.6c-0.5-0.5-0.7-1.2-0.4-2
			C101.8,43.2,102.9,42.6,104,43z"/>
		<path class="st19" d="M87.1,75.3c6.5,6.3,9.2,16,6.2,25.2c-0.3,1-0.7,1.9-1.1,2.8c-0.3-0.2-0.6-0.4-0.9-0.5
			c-1.5-0.5-3.1,0.3-3.6,1.8c-0.4,1.4,0.2,2.9,1.5,3.5c-2.6,3.2-5.9,5.8-9.6,7.4c-6.9-6.1-10-15.9-6.9-25.2
			C75.1,83,80.5,77.7,87.1,75.3z"/>
		<path class="st3" d="M90.7,35.1c0,13.6-6.2,25.8-16,33.7c-1.9-0.4-3.8-0.5-5.6-0.4c-1.6-10.1,0.9-20.7,7.9-29.2
			c3.7-4.5,8.3-7.9,13.3-10.2C90.5,30.9,90.7,33,90.7,35.1z"/>
		<path class="st19" d="M102.2,74.8c0.2,0,0.3,0.1,0.4,0.1c5.2,1.7,9.4,5,12.2,9.2c4,5.9,5.4,13.5,3,20.8
			c-4.1,12.5-17.5,19.3-29.9,15.2c-1.7-0.6-3.3-1.3-4.7-2.1c-1.3-0.8-2.5-1.6-3.6-2.6c3.7-1.6,7-4.1,9.6-7.4c0.1,0,0.2,0.1,0.3,0.1
			c1.5,0.5,3.1-0.3,3.6-1.8c0.4-1.1,0-2.3-0.9-3c0.4-0.9,0.8-1.8,1.1-2.8c3-9.2,0.3-18.9-6.2-25.2c0.1,0,0.1,0,0.2-0.1
			C91.9,73.5,97.1,73.3,102.2,74.8z M105.3,110.3c0.5-1.5-0.3-3.1-1.8-3.5c-1.5-0.5-3.1,0.3-3.6,1.8c-0.5,1.5,0.3,3.1,1.8,3.6
			C103.2,112.6,104.8,111.8,105.3,110.3z"/>
		<path class="st19" d="M86.5,74.8c0.2,0.2,0.3,0.3,0.5,0.5c-6.6,2.4-12,7.7-14.3,14.9c-3,9.3,0,19.2,6.9,25.2
			c-4.7,2-10.1,2.6-15.3,1.4c-2.5-1.3-4.8-3-6.6-5c-0.2-0.3-0.5-0.6-0.7-0.8c-0.5-0.5-0.9-1.1-1.3-1.7c-0.2-0.3-0.4-0.6-0.6-0.9
			c-0.4-0.7-0.8-1.3-1.1-2c-0.2-0.3-0.3-0.6-0.4-0.9c-0.2-0.4-0.4-0.8-0.5-1.3c-0.1-0.2-0.1-0.4-0.2-0.6c-0.1-0.2-0.1-0.3-0.2-0.5
			c-0.1-0.3-0.2-0.6-0.3-1s-0.2-0.6-0.2-1c-0.1-0.3-0.1-0.6-0.2-0.9c-0.1-0.4-0.2-0.9-0.2-1.3c0-0.3-0.1-0.7-0.1-1.1
			c0,0,0-0.1,0-0.1c0-0.3-0.1-0.6-0.1-0.9c-0.2-2.8,0.2-5.8,1.1-8.6c0.3-0.9,0.7-1.9,1.1-2.8c0.1-0.2,0.2-0.4,0.3-0.7
			c0.8-1.6,1.8-3,2.8-4.3c0.2-0.2,0.3-0.4,0.5-0.6c0.7-0.8,1.4-1.5,2.2-2.2c0.2-0.2,0.4-0.3,0.6-0.5c0,0,0,0,0,0
			c0.3-0.3,0.7-0.5,1-0.8c0.3-0.2,0.6-0.4,0.9-0.6c0.3-0.2,0.7-0.5,1.1-0.7c0.3-0.2,0.6-0.4,0.9-0.5c0.1-0.1,0.2-0.1,0.4-0.2
			c0.3-0.2,0.7-0.3,1-0.5c0.1,0,0.2-0.1,0.3-0.1c0.8-0.4,1.6-0.7,2.4-0.9c0.8-0.2,1.6-0.5,2.4-0.6c3.8-0.8,7.9-0.6,11.9,0.7
			C83.9,73.5,85.3,74.1,86.5,74.8z"/>
		<path class="st19" d="M79.6,115.4c1.1,1,2.3,1.8,3.6,2.6c-4.8,1.7-10.2,1.9-15.4,0.2c-1.2-0.4-2.4-0.9-3.5-1.4
			C69.6,118,74.9,117.4,79.6,115.4z"/>
		<path d="M70.1,71.1c-0.1,0-0.3,0-0.5,0c-0.1-0.5-0.2-1.1-0.3-1.6C69.5,70,69.8,70.6,70.1,71.1z"/>
		<path d="M70.6,72.3c-0.8,0.2-1.6,0.4-2.4,0.6C69,72.7,69.8,72.5,70.6,72.3z"/>
		<path d="M69.6,71.1c0.2,0,0.3,0,0.5,0c0.1,0.2,0.2,0.5,0.3,0.7c-1.4-1-2.6-2.1-3.9-3.3c0.7-0.1,1.4-0.2,2.1-0.2
			c0.2,0.4,0.4,0.8,0.6,1.1C69.4,70,69.5,70.5,69.6,71.1z"/>
		<path class="st3" d="M68.6,68.3c-1.6-2.7-3.5-5.2-5.7-7.3c-1.5-1.4-3.2-2.7-4.9-3.8c-3.1-5.9-4.9-12.7-4.9-19.8
			c0-15.5,8.1-29.1,20.3-36.8c8.9,6.7,15.2,16.8,16.8,28.4c-5,2.2-9.6,5.7-13.3,10.2c-7,8.5-9.5,19.2-7.9,29.2
			C68.9,68.3,68.8,68.3,68.6,68.3z"/>
		<path d="M68.2,72.9c-0.6-1.5-1.2-2.9-2-4.3c0.1,0,0.2,0,0.3,0c1.2,1.2,2.5,2.3,3.9,3.3c0.1,0.2,0.1,0.3,0.2,0.5
			C69.8,72.5,69,72.7,68.2,72.9z"/>
		<path class="st19" d="M55.1,108.3c-1,0.5-1.9,1-3,1.4c-6-6.3-8.5-15.7-5.6-24.6c3-9.1,10.8-15.3,19.6-16.7c0.8,1.4,1.5,2.8,2,4.3
			c-0.8,0.2-1.7,0.5-2.4,0.9c-0.1,0-0.2,0.1-0.3,0.1c-0.3,0.2-0.7,0.3-1,0.5c-0.1,0.1-0.3,0.1-0.4,0.2c-0.3,0.2-0.6,0.3-0.9,0.5
			c-0.4,0.2-0.7,0.4-1.1,0.7c-0.3,0.2-0.6,0.4-0.9,0.6c-0.3,0.2-0.7,0.5-1,0.8c0,0,0,0,0,0c-0.2,0.2-0.4,0.3-0.6,0.5
			c-0.8,0.7-1.5,1.4-2.2,2.2c-0.2,0.2-0.4,0.4-0.5,0.6c-1.1,1.3-2,2.8-2.8,4.3c-0.1,0.2-0.2,0.4-0.3,0.7c-0.4,0.9-0.8,1.8-1.1,2.8
			c-0.9,2.9-1.3,5.8-1.1,8.6c0,0.3,0,0.6,0.1,0.9c0,0,0,0,0,0.1c0,0.4,0.1,0.7,0.1,1.1c0.1,0.4,0.1,0.9,0.2,1.3
			c0.1,0.3,0.1,0.6,0.2,0.9c0.1,0.3,0.2,0.7,0.2,1s0.2,0.6,0.3,1c0,0.2,0.1,0.3,0.2,0.5c0.1,0.2,0.1,0.4,0.2,0.6
			c0.2,0.4,0.3,0.8,0.5,1.3c0.1,0.3,0.3,0.6,0.4,0.9C54.3,107,54.7,107.7,55.1,108.3z"/>
		<path d="M65.6,67.7c0.3,0.3,0.6,0.6,0.9,0.8c-0.1,0-0.2,0-0.3,0C66,68.3,65.8,68,65.6,67.7z"/>
		<path d="M62.9,61c2.3,2.2,4.2,4.6,5.7,7.3c-0.7,0-1.4,0.1-2.1,0.2c-0.3-0.3-0.6-0.6-0.9-0.8c-1.4-2.2-3.1-4.3-5-6.1
			C61.4,61.4,62.1,61.2,62.9,61z"/>
		<path d="M60.6,61.6c2,1.8,3.6,3.9,5,6.1C63.8,65.8,62.1,63.8,60.6,61.6L60.6,61.6z"/>
		<path d="M46.6,85.2c-2.9,8.9-0.5,18.2,5.6,24.6c-2.7,1.1-5.7,1.9-8.7,2.1c-5.9-8.2-7.9-18.9-4.6-29.2
			c3.5-10.6,11.8-18.2,21.7-21.1c1.5,2.2,3.2,4.2,5,6.1c0.2,0.3,0.4,0.6,0.5,0.9C57.3,70,49.5,76.2,46.6,85.2z"/>
		<path d="M60.6,61.6c-1-1.4-1.8-2.9-2.6-4.4c1.8,1.1,3.4,2.4,4.9,3.8C62.1,61.2,61.4,61.4,60.6,61.6L60.6,61.6
			C60.6,61.6,60.6,61.6,60.6,61.6z"/>
		<path d="M55.7,112.9c-1.3-0.9-2.5-2-3.6-3.1c1-0.4,2-0.9,3-1.4c0.2,0.3,0.4,0.6,0.6,0.9c0.4,0.6,0.8,1.1,1.3,1.7
			c0.2,0.3,0.5,0.6,0.7,0.8C57,112.2,56.4,112.5,55.7,112.9z"/>
		<path d="M43.5,111.9c3-0.3,5.9-1,8.7-2.1c1.1,1.1,2.3,2.2,3.6,3.1c-2.7,1.4-5.7,2.5-8.8,3.1C45.7,114.7,44.5,113.4,43.5,111.9z"/>
		<path d="M41.6,112c-3.2,0.1-6.5-0.4-9.7-1.4c-2.3-0.7-4.4-1.8-6.4-3c-5-9-6.4-20.1-2.9-30.6s11.1-18.6,20.4-23
			c2.3,0.2,4.6,0.6,6.9,1.4c3.2,1,6.1,2.6,8.7,4.6c-12,0.3-23,8-26.9,20C27.8,92,32.2,104.7,41.6,112z"/>
		<path class="st19" d="M38.9,82.7c-3.3,10.3-1.3,21,4.6,29.2c-0.6,0-1.2,0.1-1.8,0.1C32.2,104.7,27.8,92,31.7,80
			c3.9-12,15-19.7,26.9-20c0.7,0.5,1.3,1.1,2,1.7c0,0,0,0,0,0C50.7,64.6,42.4,72.2,38.9,82.7z"/>
		<path class="st19" d="M13.3,74C17.5,61,30.1,53,43.1,54c-9.4,4.4-17,12.4-20.4,23s-2.1,21.6,2.9,30.6C14.5,100.7,9.1,86.9,13.3,74
			z"/>
		<path d="M31.9,110.6c3.2,1.1,6.5,1.5,9.7,1.4c0.6,0,1.2-0.1,1.8-0.1c1,1.4,2.2,2.8,3.5,4.1c-5.2,1-10.8,0.8-16.2-1
			C15,109.9,5.9,93.8,9.1,78l0.6,0.4l3-7.7l-1.2,0.1C18.2,56.2,35,48.6,50.7,53.8c2.6,0.9,5,2,7.3,3.4c0.8,1.5,1.7,3,2.6,4.4
			c-0.6-0.6-1.3-1.1-2-1.7c-2.5-2-5.5-3.5-8.7-4.6c-2.3-0.8-4.6-1.2-6.9-1.4c-13-1-25.5,7-29.8,20c-4.2,13,1.2,26.8,12.2,33.7
			C27.5,108.9,29.6,109.9,31.9,110.6z"/>
		<path d="M0,72.2l11.5-1.3c-0.5,1.1-1,2.3-1.4,3.6c-0.4,1.2-0.7,2.4-0.9,3.6L0,72.2z"/>
		<path d="M12.7,70.7l-3,7.7L9.1,78c0.2-1.2,0.6-2.4,0.9-3.6c0.4-1.2,0.9-2.4,1.4-3.6L12.7,70.7z"/>
	</g>
	<g>
		<path class="st20" d="M83.2,118c1.5,0.9,3,1.6,4.7,2.1c12.5,4.1,25.9-2.8,29.9-15.2c2.4-7.3,1-14.9-3-20.8
			c-2.8-4.2-7-7.5-12.2-9.2c-0.2-0.1-0.3-0.1-0.4-0.1c-5.1-1.6-10.3-1.3-15,0.4"/>
		<path class="st20" d="M54,84.8c-0.1,0.2-0.2,0.4-0.3,0.7"/>
		<path class="st20" d="M57.3,79.9c-0.2,0.2-0.4,0.4-0.5,0.6"/>
		<path class="st20" d="M60.1,77.2c-0.2,0.2-0.4,0.3-0.6,0.5"/>
		<path class="st20" d="M61.2,76.4c-0.3,0.2-0.7,0.5-1,0.8"/>
		<path class="st20" d="M64,74.6c-0.3,0.2-0.6,0.3-0.9,0.5c-0.4,0.2-0.7,0.4-1.1,0.7"/>
		<path class="st20" d="M65.4,74c-0.3,0.2-0.7,0.3-1,0.5"/>
		<path class="st20" d="M68.2,72.9c-0.8,0.2-1.7,0.5-2.4,0.9"/>
		<path class="st20" d="M57.7,111.7c1.9,2,4.1,3.7,6.6,5c1.1,0.6,2.3,1,3.5,1.4c5.2,1.7,10.6,1.5,15.4-0.2c-1.3-0.8-2.5-1.6-3.6-2.6
			c-6.9-6.1-10-15.9-6.9-25.2c2.3-7.2,7.8-12.5,14.3-14.9c0.1,0,0.1,0,0.2-0.1c-0.2-0.1-0.5-0.3-0.7-0.4c-1.3-0.7-2.6-1.3-4-1.7
			c-4-1.3-8.1-1.5-11.9-0.7"/>
		<path class="st20" d="M55.7,109.2c0.4,0.6,0.8,1.1,1.3,1.7"/>
		<path class="st20" d="M53.5,105.4c0.1,0.3,0.3,0.6,0.4,0.9"/>
		<path class="st20" d="M52.6,103.1c0,0.2,0.1,0.3,0.2,0.5c0.1,0.2,0.1,0.4,0.2,0.6"/>
		<path class="st20" d="M51.9,100.2c0.1,0.3,0.1,0.6,0.2,0.9c0.1,0.3,0.2,0.7,0.2,1"/>
		<path class="st20" d="M51.5,97.9c0,0.4,0.1,0.7,0.1,1.1"/>
		<path class="st20" d="M51.4,96.9c0,0.3,0,0.6,0.1,0.9"/>
		<path class="st21" d="M70.1,71.1c0.4,0.1,0.8,0.1,1.2,0.1c3.2,0.3,6.4,0.1,9.5-0.4c5.5-1,10.7-3.2,15.3-6.5
			c2.4-1.8,4.7-3.9,6.7-6.3c7.6-9.3,9.9-21.1,7.4-32c-6.8-0.9-13.7,0.1-20,2.9c-5,2.2-9.6,5.7-13.3,10.2c-7,8.5-9.5,19.2-7.9,29.2
			c0.1,0.4,0.1,0.8,0.2,1.2"/>
		<path class="st22" d="M70.4,71.8L70.4,71.8c0.3-0.2,0.6-0.4,0.9-0.6c1.2-0.8,2.3-1.6,3.4-2.5c9.8-7.9,16.1-20.1,16-33.7
			c0-2.1-0.2-4.1-0.4-6.1C88.6,17.4,82.3,7.3,73.4,0.6C61.2,8.2,53,21.9,53.1,37.4c0,7.2,1.8,13.9,4.9,19.8"/>
		<path class="st23" d="M130.6,58.5c-7.2,0.9-13.5,5.9-15.9,13.2c-1.4,4.2-1.2,8.5,0.1,12.4c0.1,0.3,0.2,0.7,0.4,1"/>
		<path class="st23" d="M101.9,46.2c-2.3,2.2-4.1,4.9-5.2,8.1c-1.1,3.3-1.2,6.7-0.6,9.9c0.9,4.1,3,7.8,6.1,10.5
			c0,0.1,0.1,0.1,0.2,0.2"/>
		<path class="st20" d="M54,106.3c0.3,0.7,0.7,1.4,1.1,2"/>
		<path class="st20" d="M53,104.1c0.2,0.4,0.3,0.8,0.5,1.3"/>
		<path class="st20" d="M52.3,102.1c0.1,0.3,0.2,0.6,0.3,1"/>
		<path class="st20" d="M51.6,99c0.1,0.4,0.1,0.9,0.2,1.3"/>
		<path class="st20" d="M51.5,97.8C51.5,97.8,51.5,97.9,51.5,97.8"/>
		<path class="st20" d="M53.7,85.5c-0.4,0.9-0.8,1.8-1.1,2.8c-0.9,2.9-1.3,5.8-1.1,8.6"/>
		<path class="st20" d="M56.8,80.5c-1.1,1.3-2,2.8-2.8,4.3"/>
		<path class="st20" d="M59.5,77.7c-0.8,0.7-1.5,1.4-2.2,2.2"/>
		<path class="st20" d="M60.2,77.2C60.2,77.2,60.1,77.2,60.2,77.2"/>
		<path class="st20" d="M62,75.8c-0.3,0.2-0.6,0.4-0.9,0.6"/>
		<path class="st20" d="M64.4,74.4c-0.1,0.1-0.3,0.1-0.4,0.2"/>
		<path class="st20" d="M65.8,73.8c-0.1,0-0.2,0.1-0.3,0.1"/>
		<path d="M92.2,103.3c-0.3-0.2-0.6-0.4-0.9-0.5c-1.5-0.5-3.1,0.3-3.6,1.8c-0.4,1.4,0.2,2.9,1.5,3.5c0.1,0,0.2,0.1,0.3,0.1
			c1.5,0.5,3.1-0.3,3.6-1.8C93.4,105.2,93,104,92.2,103.3z"/>
		<path d="M99.9,108.6c-0.5,1.5,0.3,3.1,1.8,3.6c1.5,0.5,3.1-0.3,3.5-1.8c0.5-1.5-0.3-3.1-1.8-3.5C102,106.3,100.4,107.1,99.9,108.6
			z"/>
	</g>
</g>
</svg>
