<?xml version="1.0" encoding="utf-8"?>
<!-- Generator: Adobe Illustrator 22.1.0, SVG Export Plug-In . SVG Version: 6.00 Build 0)  -->
<svg version="1.1" id="Calque_1" xmlns="http://www.w3.org/2000/svg" xmlns:xlink="http://www.w3.org/1999/xlink" x="0px" y="0px"
	 viewBox="0 0 136 348" style="enable-background:new 0 0 136 348;" xml:space="preserve">
<style type="text/css">
	.st0{fill:none;stroke:#000000;stroke-width:2.9024;stroke-linecap:round;stroke-miterlimit:10;}
	.st1{fill:#F7931E;}
	.st2{fill:#78AA21;}
	.st3{fill:#1FCECB;}
	.st4{fill:#B4BF35;}
	.st5{fill:#FFFFFF;}
	.st6{fill:none;stroke:#000000;stroke-miterlimit:10;}
	.st7{fill:none;stroke:#000000;stroke-width:4.7972;stroke-miterlimit:10;}
	.st8{fill:none;stroke:#000000;stroke-width:8;stroke-miterlimit:10;}
	.st9{fill:none;stroke:#000000;stroke-width:2;stroke-miterlimit:10;}
	.st10{fill:none;stroke:#000000;stroke-width:2.3521;stroke-miterlimit:10;}
	.st11{fill:none;stroke:#000000;stroke-width:3;stroke-miterlimit:10;}
	.st12{fill:none;}
	.st13{fill:none;stroke:#000000;stroke-width:2.2884;stroke-miterlimit:10;}
	.st14{fill:none;stroke:#000000;stroke-width:0.5721;stroke-miterlimit:10;}
	.st15{fill:none;stroke:#000000;stroke-width:0.6728;stroke-miterlimit:10;}
	.st16{fill:none;stroke:#000000;stroke-width:0.8581;stroke-miterlimit:10;}
	.st17{fill:none;stroke:#000000;stroke-width:2.1926;stroke-miterlimit:10;}
	.st18{fill:#FFFFFF;stroke:#000000;stroke-width:1.5121;stroke-miterlimit:10;}
	.st19{fill:#FFFFFF;stroke:#000000;stroke-width:2.069;stroke-miterlimit:10;}
	.st20{fill:none;stroke:#000000;stroke-width:2.8887;stroke-miterlimit:10;}
	.st21{fill:none;stroke:#000000;stroke-width:3.2216;stroke-miterlimit:10;}
	.st22{fill:none;stroke:#000000;stroke-width:0.8054;stroke-miterlimit:10;}
	.st23{fill:none;stroke:#000000;stroke-width:0.9472;stroke-miterlimit:10;}
	.st24{fill:none;stroke:#000000;stroke-width:1.2081;stroke-miterlimit:10;}
	.st25{fill:#EC4863;}
	.st26{fill:none;stroke:#78AA21;stroke-width:14;stroke-miterlimit:10;}
	.st27{fill:#E88E34;stroke:#603813;stroke-width:3;stroke-miterlimit:10;}
	.st28{fill:#F8F8F8;stroke:#E88E34;stroke-width:5;stroke-miterlimit:10;}
	.st29{fill:#E88E34;}
	.st30{fill:#99573E;}
	.st31{fill:#363942;}
	.st32{fill:none;stroke:#363942;stroke-linecap:round;stroke-miterlimit:10;}
	.st33{fill:none;stroke:#FFFFFF;stroke-miterlimit:10;}
	.st34{fill:none;stroke:#363942;stroke-miterlimit:10;}
	.st35{fill:none;stroke:#FFFFFF;stroke-linecap:round;stroke-miterlimit:10;}
	.st36{fill:none;stroke:#000000;stroke-width:3.2649;stroke-miterlimit:10;}
	.st37{fill:none;stroke:#000000;stroke-width:0.6104;stroke-miterlimit:10;}
	.st38{fill:none;stroke:#000000;stroke-width:5.2238;stroke-linecap:round;stroke-miterlimit:10;}
	.st39{fill:none;stroke:#000000;stroke-width:1.4227;stroke-miterlimit:10;}
	.st40{fill:none;stroke:#000000;stroke-width:0.3557;stroke-miterlimit:10;}
	.st41{fill:none;stroke:#000000;stroke-width:0.4183;stroke-miterlimit:10;}
	.st42{fill:none;stroke:#000000;stroke-width:0.5335;stroke-miterlimit:10;}
	.st43{fill:#FFFFFF;stroke:#000000;stroke-width:2.2995;stroke-linecap:round;stroke-miterlimit:10;}
	.st44{fill:#FFFFFF;stroke:#000000;stroke-width:2.7744;stroke-linecap:round;stroke-miterlimit:10;}
</style>
<path class="st25" d="M93.5,91.5c0,16.6-13.4,30-30,30s-30-13.4-30-30c0-0.3,0-0.7,0-1c0.3-8.4,4-15.9,9.8-21.2
	c2,5.5,6.3,9.9,11.7,12.1c2.5,1,5.2,1.6,8,1.6s5.5-0.6,8-1.6c5.6-2.3,10-7,11.9-12.8c6.2,5.3,10.3,13.1,10.5,21.8
	C93.5,90.8,93.5,91.1,93.5,91.5z"/>
<path class="st25" d="M93.5,31.5c0,9.3-4.2,17.6-10.8,23.1c-2.3-6.1-7.4-10.8-13.7-12.7c-1.9-0.6-3.9-0.9-6-0.9s-4.1,0.3-6,0.9
	c-6.1,1.8-11,6.3-13.4,12.1c-6.2-5.5-10.1-13.5-10.1-22.4c0-0.3,0-0.7,0-1c0.5-16.1,13.7-29,30-29c16.2,0,29.5,12.9,30,29
	C93.5,30.8,93.5,31.2,93.5,31.5z"/>
<path class="st5" d="M84,62c0,2.3-0.4,4.6-1.1,6.6C81,74.4,76.6,79.1,71,81.4c-2.5,1-5.2,1.6-8,1.6s-5.5-0.6-8-1.6
	c-5.4-2.2-9.6-6.6-11.7-12.1C42.5,67,42,64.6,42,62c0-2.9,0.6-5.6,1.6-8.1C46,48.1,50.9,43.7,57,41.9c1.9-0.6,3.9-0.9,6-0.9
	s4.1,0.3,6,0.9c6.3,1.9,11.3,6.6,13.7,12.7C83.5,56.9,84,59.4,84,62z"/>
<path class="st25" d="M122.5,60.5c0,16.2-12.9,29.5-29,30c-0.3,0-0.6,0-1,0c-8.4,0-16-3.5-21.5-9.1c5.6-2.3,10-7,11.9-12.8
	c0.7-2.1,1.1-4.3,1.1-6.6c0-2.6-0.5-5.1-1.3-7.4c-2.3-6.1-7.4-10.8-13.7-12.7c5.5-6.9,14-11.4,23.5-11.4c0.3,0,0.7,0,1,0
	C109.6,31,122.5,44.3,122.5,60.5z"/>
<path class="st25" d="M55,81.4c-5.4,5.6-13,9.1-21.5,9.1h0c-16.6,0-30-13.4-30-30s13.4-30,30-30h0c9.5,0,18,4.5,23.5,11.4
	c-6.1,1.8-11,6.3-13.4,12.1c-1,2.5-1.6,5.2-1.6,8.1c0,2.6,0.5,5,1.3,7.3C45.3,74.8,49.6,79.2,55,81.4z"/>
<path class="st2" d="M70.9,292.6c-1,7.6,0.1,15,2.8,21.6c3.4,1.4,7.1,2.4,10.9,2.9c23.7,3,45.3-13.7,48.2-37.4
	c1-7.6-0.1-15-2.8-21.6c-3.4-1.4-7.1-2.4-10.9-2.9C95.4,252.2,73.8,268.9,70.9,292.6z"/>
<path class="st2" d="M49.9,248.1c5.6,0,10.9-1.4,15.5-4c0.7-2.6,1.1-5.4,1.1-8.2c0.1-17.5-14-31.8-31.5-31.9c-5.6,0-10.9,1.4-15.5,4
	c-0.7,2.6-1.1,5.4-1.1,8.2C18.3,233.7,32.4,248,49.9,248.1z"/>
<line class="st26" x1="66" y1="121" x2="66" y2="348"/>
</svg>
