<?xml version="1.0" encoding="utf-8"?>
<!-- Generator: Adobe Illustrator 22.1.0, SVG Export Plug-In . SVG Version: 6.00 Build 0)  -->
<svg version="1.1" id="Calque_1" xmlns="http://www.w3.org/2000/svg" xmlns:xlink="http://www.w3.org/1999/xlink" x="0px" y="0px"
	 viewBox="0 0 1350.3 537.1" style="enable-background:new 0 0 1350.3 537.1;" xml:space="preserve">
<style type="text/css">
	.st0{fill:none;stroke:#000000;stroke-width:2.9024;stroke-linecap:round;stroke-miterlimit:10;}
	.st1{fill:#F7931E;}
	.st2{fill:#78AA21;}
	.st3{fill:#1FCECB;}
	.st4{fill:#B4BF35;}
	.st5{fill:#FFFFFF;}
	.st6{fill:none;stroke:#000000;stroke-miterlimit:10;}
	.st7{fill:none;stroke:#000000;stroke-width:4.7972;stroke-miterlimit:10;}
	.st8{fill:none;stroke:#000000;stroke-width:8;stroke-miterlimit:10;}
	.st9{fill:none;stroke:#000000;stroke-width:2;stroke-miterlimit:10;}
	.st10{fill:none;stroke:#000000;stroke-width:2.3521;stroke-miterlimit:10;}
	.st11{fill:none;stroke:#000000;stroke-width:3;stroke-miterlimit:10;}
	.st12{fill:none;}
	.st13{fill:none;stroke:#000000;stroke-width:2.2884;stroke-miterlimit:10;}
	.st14{fill:none;stroke:#000000;stroke-width:0.5721;stroke-miterlimit:10;}
	.st15{fill:none;stroke:#000000;stroke-width:0.6728;stroke-miterlimit:10;}
	.st16{fill:none;stroke:#000000;stroke-width:0.8581;stroke-miterlimit:10;}
	.st17{fill:none;stroke:#000000;stroke-width:2.1926;stroke-miterlimit:10;}
	.st18{fill:#FFFFFF;stroke:#000000;stroke-width:1.5121;stroke-miterlimit:10;}
	.st19{fill:#FFFFFF;stroke:#000000;stroke-width:2.069;stroke-miterlimit:10;}
	.st20{fill:none;stroke:#000000;stroke-width:2.8887;stroke-miterlimit:10;}
	.st21{fill:none;stroke:#000000;stroke-width:3.2216;stroke-miterlimit:10;}
	.st22{fill:none;stroke:#000000;stroke-width:0.8054;stroke-miterlimit:10;}
	.st23{fill:none;stroke:#000000;stroke-width:0.9472;stroke-miterlimit:10;}
	.st24{fill:none;stroke:#000000;stroke-width:1.2081;stroke-miterlimit:10;}
	.st25{fill:#EC4863;}
	.st26{fill:none;stroke:#78AA21;stroke-width:14;stroke-miterlimit:10;}
	.st27{fill:#E88E34;stroke:#603813;stroke-width:3;stroke-miterlimit:10;}
	.st28{fill:#F8F8F8;stroke:#E88E34;stroke-width:5;stroke-miterlimit:10;}
	.st29{fill:#E88E34;}
	.st30{fill:#99573E;}
	.st31{fill:#363942;}
	.st32{fill:none;stroke:#363942;stroke-linecap:round;stroke-miterlimit:10;}
	.st33{fill:none;stroke:#FFFFFF;stroke-miterlimit:10;}
	.st34{fill:none;stroke:#363942;stroke-miterlimit:10;}
	.st35{fill:none;stroke:#FFFFFF;stroke-linecap:round;stroke-miterlimit:10;}
	.st36{fill:none;stroke:#000000;stroke-width:3.2649;stroke-miterlimit:10;}
	.st37{fill:none;stroke:#000000;stroke-width:0.6104;stroke-miterlimit:10;}
	.st38{fill:none;stroke:#000000;stroke-width:5.2238;stroke-linecap:round;stroke-miterlimit:10;}
	.st39{fill:none;stroke:#000000;stroke-width:1.4227;stroke-miterlimit:10;}
	.st40{fill:none;stroke:#000000;stroke-width:0.3557;stroke-miterlimit:10;}
	.st41{fill:none;stroke:#000000;stroke-width:0.4183;stroke-miterlimit:10;}
	.st42{fill:none;stroke:#000000;stroke-width:0.5335;stroke-miterlimit:10;}
	.st43{fill:#FFFFFF;stroke:#000000;stroke-width:2.2995;stroke-linecap:round;stroke-miterlimit:10;}
	.st44{fill:#FFFFFF;stroke:#000000;stroke-width:2.7744;stroke-linecap:round;stroke-miterlimit:10;}
</style>
<g>
	<g>
		<path d="M2.2,18.2C51.3-11.3,115.6,5.5,156,42.2c45.3,41.2,66.4,101.3,81.1,159.1c15.4,60.6,25.9,124.1,57.8,178.9
			c27,46.3,69.1,84.6,123.7,92.6c58.5,8.6,117.2-15.5,166.3-45.3c51.7-31.4,98-71.5,152.7-97.9c55.5-26.8,117.6-33.9,177.3-17.4
			c29.1,8,56.5,21.4,80.7,39.5c25.5,19.1,47.4,42.5,68.7,66.1c38.8,42.8,78.9,89.1,134.4,110.1c43.6,16.5,97.9,12.2,132.5-21.6
			c8-7.9,14.4-17.2,18.9-27.5c0.8-1.8-1.8-3.3-2.6-1.5c-20.7,47.3-79.6,65-127.1,54.1c-59.8-13.7-104.2-60.6-143.8-104.4
			c-40.2-44.4-80.8-88.1-138-110.1c-53.7-20.7-114.4-22.3-169-3.7c-56.2,19.2-103.6,56.2-152,89.4c-50.4,34.5-107.4,67.2-170.1,69
			c-30,0.9-59.5-6.4-85-22.4c-23.6-14.8-42.9-35.7-58-58.9c-34.8-53.2-46.6-116.7-61.5-177.4C229.2,156.4,211.4,98.1,171.9,54
			C138.3,16.5,86.3-7.6,35.5,2.2c-12.3,2.4-24,6.9-34.7,13.4C-0.9,16.6,0.6,19.2,2.2,18.2L2.2,18.2z"/>
	</g>
</g>
</svg>
